<svg xmlns="http://www.w3.org/2000/svg" viewBox="0 0 359 359"><defs><style>.cls-1{fill:#c6000f;}.cls-2{fill:#fff;}</style></defs><title>isotipo-kungfupress</title><g id="Capa_2" data-name="Capa 2"><g id="Capa_2-2" data-name="Capa 2"><rect class="cls-1" width="359" height="359"/><path class="cls-2" d="M337.07,186.47c-24.2,0-42.12,1-66.2-.62-7.2-.49-15.36-7.18-20.57-13.2-24.21-28-47.51-56.77-71.21-85.2-4.26-5.11-8.89-9.91-13.79-15.33-38.55,58.36-83,109.34-145.76,140.63L17,209c5-4.39,9.9-8.92,15.07-13.12,46.6-37.84,81.7-76.32,108.27-130.36,3.48-7.08,6.94-20.4,9.89-31.8a5.61,5.61,0,0,1,7.12-4c4.86,1.64,9.77,6.52,15,10,6.68,4.48,4,11.31,1.83,17.28-1,2.7.22,6,2.17,8.31,32.18,37.78,97.06,83.1,121.56,99.61a74.53,74.53,0,0,0,19.62,9.41c6.47,2,14.31,4.55,17.77,6.16,1,.46,1.91.94,2.87,1.41C337.82,183.45,337.45,185,337.07,186.47Z"/><path class="cls-2" d="M260.87,234.5a2.81,2.81,0,0,1,.07,4.54c-35.86,27.65-32,63.13-28.36,66.4,1.08,3.57-17.32,3.66-18.68,1.39l-3.13-3.09a12.13,12.13,0,0,0-8.87-3.4c-12.08.34-42.72,1.24-68.62,2.17A12.92,12.92,0,0,0,124,306.8l-3.44,3.95a3.47,3.47,0,0,1-5,.08c-2.29-2.37-4.66-4.73-5.48-7.47-3.77-12.59-5.86-25.61-9.76-38.17-3.44-11.11-8.63-21.76-12.61-32.75-1.12-3.09-1.89-7.19-.51-9.79C88,221,93.55,220.3,96.45,221c35.43,8.67,69.79-.5,104.46-4.17,1.9-.2,3.72-1,5.62-1.26,8.08-1.2,17.94-5.54,23.88-2.79C241.06,217.72,249.87,226,260.87,234.5Zm-140.93,2.29a3.06,3.06,0,0,0-3,3.28c1.76,15.31,3.2,29.45,5.42,43.49.33,2.06,5.12,5.16,7.71,5.07,22.83-.78,45.64-2,68.42-3.49,3.93-.26,8.08-3.28,9.24-6.7a322.41,322.41,0,0,0,9.71-32.72c2.24-10-1.79-14.67-12.64-14.16C176.63,232.86,148.5,234.94,119.94,236.79Z"/><path class="cls-2" d="M93.76,173.3c31.76-4,63.81-8.87,93.16-16.74,3.71-1,9.19-7.38,12.7-8.47,8.12-2.53,13.63,1.6,19.36,9.85-19.74,17.6-104,30.3-124.46,19.39Z"/></g></g></svg>