<svg xmlns="http://www.w3.org/2000/svg" viewBox="0 0 705.78 162"><defs><style>.cls-1{fill:#c6000f;}.cls-2{fill:#fff;}</style></defs><title>logo-kungfupress</title><g id="Capa_2" data-name="Capa 2"><g id="Capa_2-2" data-name="Capa 2"><rect class="cls-1" width="162" height="162" rx="15.89"/><path class="cls-2" d="M152.11,84.15c-10.93,0-19,.46-29.88-.29-3.25-.22-6.93-3.23-9.28-6C102,65.28,91.51,52.29,80.81,39.46c-1.92-2.3-4-4.47-6.22-6.92C57.2,58.88,37.16,81.89,8.82,96L7.67,94.31c2.26-2,4.47-4,6.8-5.92C35.5,71.31,51.34,54,63.33,29.56c1.57-3.19,3.13-9.21,4.46-14.35A2.53,2.53,0,0,1,71,13.41c2.2.74,4.41,2.94,6.79,4.53,3,2,1.81,5.11.82,7.8a4,4,0,0,0,1,3.75c14.52,17.05,43.8,37.5,54.86,45a33.56,33.56,0,0,0,8.85,4.24c2.92.91,6.46,2.06,8,2.79l1.29.63Z"/><path class="cls-2" d="M117.72,105.82a1.27,1.27,0,0,1,0,2.05c-16.18,12.47-14.43,28.49-12.8,30,.49,1.61-7.81,1.65-8.43.63l-1.41-1.4a5.52,5.52,0,0,0-4-1.53c-5.45.15-19.28.56-31,1A5.83,5.83,0,0,0,56,138.44l-1.55,1.79a1.57,1.57,0,0,1-2.27,0,9.3,9.3,0,0,1-2.47-3.37c-1.7-5.68-2.65-11.55-4.4-17.22-1.56-5-3.9-9.82-5.69-14.78-.51-1.4-.86-3.25-.23-4.42.38-.73,2.88-1.06,4.18-.74,16,3.91,31.49-.23,47.14-1.88.86-.09,1.68-.44,2.54-.57,3.64-.54,8.09-2.5,10.77-1.26C108.78,98.25,112.76,102,117.72,105.82Zm-63.6,1a1.38,1.38,0,0,0-1.35,1.48c.79,6.91,1.45,13.29,2.45,19.63.14.93,2.31,2.33,3.48,2.29,10.3-.36,20.59-.91,30.87-1.58a5,5,0,0,0,4.17-3,146.77,146.77,0,0,0,4.38-14.77c1-4.51-.81-6.62-5.7-6.39C79.7,105.08,67,106,54.12,106.85Z"/><path class="cls-2" d="M42.31,78.2c14.33-1.82,28.8-4,42-7.55,1.67-.45,4.15-3.33,5.73-3.82,3.66-1.14,6.15.72,8.73,4.44C89.91,79.21,51.86,84.94,42.65,80Z"/><path d="M248.15,107.93q-4.41-2.19-10.11-8.16l-18.13-19v28.5h-7.78V62.64q0-4.41-1.2-6.52T206.09,54h-1.73V52.27h7.77a11,11,0,0,1,4.8.82,4.86,4.86,0,0,1,2.29,3,23.17,23.17,0,0,1,.69,6.57V79.48L238,61.34l1.73-1.81c1.61-1.67,3-3,4.06-3.93a14.57,14.57,0,0,1,3.89-2.38,12.75,12.75,0,0,1,5-.95H257v2.16a14.66,14.66,0,0,0-6.3,1.26,23.52,23.52,0,0,0-6.22,4.79L227.68,77.32l19.86,20.73a51,51,0,0,0,7.69,6.52,17.2,17.2,0,0,0,7,3.06v1.64a17.56,17.56,0,0,1-5.62.87A18.89,18.89,0,0,1,248.15,107.93Z"/><path d="M268.31,106.68q-4.1-3.45-4.1-12.09V79.05q0-4.41-1.21-6.52c-.8-1.41-2.42-2.12-4.83-2.12h-.87V68.68h6.91a10.94,10.94,0,0,1,4.79.82,4.76,4.76,0,0,1,2.29,3,23.17,23.17,0,0,1,.69,6.57V94.59q0,6,2.73,8.85a9,9,0,0,0,6.77,2.81c3.06,0,5.93-1.52,8.64-4.58v-33h7.77v40.59h-4.31l-3-3.45h-.43a14.88,14.88,0,0,1-4.71,3.06,16.17,16.17,0,0,1-6.52,1.26A15.85,15.85,0,0,1,268.31,106.68Z"/><path d="M309.46,79.05q0-4.41-1.2-6.52t-4.84-2.12h-1.73V68.68h7.77a10.89,10.89,0,0,1,4.88.87,5.23,5.23,0,0,1,2.47,2.59h.43a15,15,0,0,1,4.7-3.07,16.37,16.37,0,0,1,6.52-1.25A15.87,15.87,0,0,1,339,71.27q4.11,3.47,4.11,12.09v25.91h-7.78V83.36c0-4-.9-7-2.72-8.85a9,9,0,0,0-6.78-2.8q-4.58,0-8.63,4.57v33h-7.78Z"/><path d="M354.16,123.35Q349,120.16,349,113.16a9.9,9.9,0,0,1,2.68-6.91,15.68,15.68,0,0,1,6.82-4.32c-2.3-1.26-3.46-3-3.46-5.18a4.13,4.13,0,0,1,.78-2.68A13.86,13.86,0,0,1,358.09,92a11.48,11.48,0,0,1-4.62-4.32,12.62,12.62,0,0,1-1.86-6.91q0-12.94,16.41-13h16V70l-5.62.86v.43a11.74,11.74,0,0,1,4.36,3.85,9.71,9.71,0,0,1,1.69,5.65q0,13-16.41,13-9.07,0-9.07,3t9.07,3q8.37,0,13.69,3.33T387,113.16q0,7-5.14,10.19T368,126.55Q359.29,126.55,354.16,123.35Zm22.06-2.72q3-2.46,3-7.47,0-8.64-10.37-9.93l-4.75-.43a12.17,12.17,0,0,0-5.44,3.88,10.41,10.41,0,0,0-1.9,6.48q0,5,3,7.47c2,1.64,4.75,2.46,8.21,2.46S374.21,122.27,376.22,120.63Zm-1.94-32.3c1.58-1.58,2.38-4.1,2.38-7.56,0-3.28-.8-5.75-2.38-7.42A8.23,8.23,0,0,0,368,70.84a8.44,8.44,0,0,0-6.26,2.38q-2.38,2.37-2.38,7.55t2.38,7.56a9.42,9.42,0,0,0,12.52,0Z"/><path d="M415.69,62.64q0-4.41-1.21-6.52T409.65,54h-1.73V52.27h34.46q7.33,0,7.34,6.91v6.48H448q0-9.93-10.79-9.93H423.46V78.61H443v3.46H423.46v27.2h-7.77Z"/><path d="M460.3,106.68q-4.11-3.45-4.11-12.09V79.05q0-4.41-1.2-6.52t-4.84-2.12h-.86V68.68h6.9a11,11,0,0,1,4.8.82,4.83,4.83,0,0,1,2.29,3,23.17,23.17,0,0,1,.69,6.57V94.59c0,4,.9,7,2.72,8.85a9,9,0,0,0,6.78,2.81q4.57,0,8.63-4.58v-33h7.78v40.59h-4.32l-3-3.45h-.44a14.83,14.83,0,0,1-4.7,3.06,16.2,16.2,0,0,1-6.52,1.26A15.82,15.82,0,0,1,460.3,106.68Z"/><path d="M522.52,62.64q0-4.41-1.21-6.52T516.48,54h-1.73V52.27H537.2a31.27,31.27,0,0,1,14.94,3.54q6.66,3.55,6.65,13.74,0,6.74-3.45,10.36a17,17,0,0,1-7.73,4.84A29.2,29.2,0,0,1,539.79,86h-9.5v23.31h-7.77Zm20.12,18.87a13,13,0,0,0,7.52-12.4,13,13,0,0,0-7.52-12.39,14.11,14.11,0,0,0-5.87-1.42,26.59,26.59,0,0,0-6.48.86V82.07a26.59,26.59,0,0,0,6.48.86A14.11,14.11,0,0,0,542.64,81.51Z"/><path d="M570.11,79.05c0-2.94-.41-5.11-1.21-6.52s-2.42-2.12-4.84-2.12h-.86V68.68h6.91a10.66,10.66,0,0,1,5,.91,5.05,5.05,0,0,1,2.38,3h.43a12.65,12.65,0,0,1,4.19-3.37,13.09,13.09,0,0,1,6.17-1.38,8.62,8.62,0,0,1,5.18,1.29,12.9,12.9,0,0,1,3,3.89L593,75.59a5.65,5.65,0,0,0-2.76-1.94,12.34,12.34,0,0,0-4.15-.65,9.83,9.83,0,0,0-4.75,1.17,9.27,9.27,0,0,0-3.45,3.15v32h-7.77Z"/><path d="M606.64,107.33a17.34,17.34,0,0,1-6.13-7.6,28.72,28.72,0,0,1,0-21.46,17.66,17.66,0,0,1,6-7.64,15.41,15.41,0,0,1,9.2-2.81q8.71,0,13,4.88T633,86.82l-.17,3.45H606.64q0,7.26,3.11,11.84a9.79,9.79,0,0,0,8.55,4.57,12.87,12.87,0,0,0,6.86-1.72,18.22,18.22,0,0,0,5.23-5.19l1.73,1.3a18.8,18.8,0,0,1-6.66,6.91,17.66,17.66,0,0,1-8.89,2.16A17,17,0,0,1,606.64,107.33Zm18.13-20.51q0-7.6-2.24-11.57a7.35,7.35,0,0,0-6.82-4,6.53,6.53,0,0,0-4.67,2,13.69,13.69,0,0,0-3.24,5.57,25.55,25.55,0,0,0-1.16,7.95Z"/><path d="M640.92,106.68a6.23,6.23,0,0,1-1.81-3.32,34.41,34.41,0,0,1-.35-5.75h1.73a10.63,10.63,0,0,0,3.76,6.7q3,2.37,8.33,2.37c3.17,0,5.54-.54,7.13-1.64a5.09,5.09,0,0,0,2.37-4.4,5.86,5.86,0,0,0-1.85-4.32,18.68,18.68,0,0,0-5.92-3.46l-5.18-2.15a21.62,21.62,0,0,1-7.78-4.84,9.63,9.63,0,0,1-2.59-6.82,9.73,9.73,0,0,1,4-8.25q4-3,10.27-3,9.51,0,13,3.45a6.26,6.26,0,0,1,1.81,3.29,34.08,34.08,0,0,1,.35,5.78H666.4a10.31,10.31,0,0,0-3.63-6.69c-1.95-1.58-4.63-2.38-8-2.38A10.48,10.48,0,0,0,648.39,73a5.2,5.2,0,0,0-2.29,4.36q0,4.49,6.91,7.34l5.19,2.16q5.87,2.42,8.55,5.14a10.25,10.25,0,0,1-1.56,15.2q-4.23,3-10.88,3Q644.38,110.14,640.92,106.68Z"/><path d="M677.28,106.68a6.23,6.23,0,0,1-1.81-3.32,34.41,34.41,0,0,1-.35-5.75h1.73a10.63,10.63,0,0,0,3.76,6.7q3,2.37,8.33,2.37c3.17,0,5.54-.54,7.13-1.64a5.09,5.09,0,0,0,2.37-4.4,5.83,5.83,0,0,0-1.86-4.32,18.61,18.61,0,0,0-5.91-3.46l-5.18-2.15a21.62,21.62,0,0,1-7.78-4.84,9.63,9.63,0,0,1-2.59-6.82,9.75,9.75,0,0,1,4-8.25,16.67,16.67,0,0,1,10.28-3c6.34,0,10.65,1.15,13,3.45a6.26,6.26,0,0,1,1.81,3.29,34.08,34.08,0,0,1,.35,5.78h-1.73a10.31,10.31,0,0,0-3.63-6.69c-2-1.58-4.63-2.38-8-2.38A10.48,10.48,0,0,0,684.75,73a5.2,5.2,0,0,0-2.29,4.36q0,4.49,6.91,7.34l5.18,2.16q5.88,2.42,8.55,5.14a10.24,10.24,0,0,1-1.55,15.2q-4.23,3-10.88,3Q680.74,110.14,677.28,106.68Z"/></g></g></svg>